<?xml version="1.0" standalone="no"?><!DOCTYPE svg PUBLIC "-//W3C//DTD SVG 1.1//EN" "http://www.w3.org/Graphics/SVG/1.1/DTD/svg11.dtd"><svg t="1601479008056" class="icon" viewBox="0 0 1024 1024" version="1.1" xmlns="http://www.w3.org/2000/svg" p-id="7682" xmlns:xlink="http://www.w3.org/1999/xlink" width="16" height="16"><defs><style type="text/css"></style></defs><path d="M717.002437 442.347662v55.285612a15.645687 15.645687 0 0 1-15.692765 15.567223h-24.574871c-1.883132 7.234365-4.346896 14.233338-7.124515 21.028305l-0.329548 0.533554c-2.793312 6.575269-5.90048 13.024995-9.227346 19.145173l17.230656 17.450355a15.598608 15.598608 0 0 1 0 22.016949l-40.047936 40.047937a15.582916 15.582916 0 0 1-21.922793 0l-17.685746-17.575897c-6.120178 3.797649-12.899453 7.014666-19.678728 9.902135-6.685118 2.66777-13.574242 5.115841-20.808606 7.218672v24.480713a15.849693 15.849693 0 0 1-15.802615 15.786922h-56.509647c-8.56825 0-15.582916-7.234365-15.582915-15.786922h-0.10985v-24.480713c-7.124515-2.102831-14.013639-4.550902-20.808606-7.218672a151.811809 151.811809 0 0 1-19.678728-9.902135l-17.575897 17.575897a15.645687 15.645687 0 0 1-22.142491-0.10985l-39.938087-40.047936a15.567223 15.567223 0 0 1 0-21.9071l17.575897-17.575897a132.949106 132.949106 0 0 1-9.902135-19.553185 198.356551 198.356551 0 0 1-7.124516-21.028305h-24.57487c-8.678099 0-15.692765-7.014666-15.692765-15.567223v-56.619497a15.66138 15.66138 0 0 1 15.692765-15.677072h24.57487c2.008674-7.108823 4.346896-14.123489 7.124516-20.918456 2.777619-6.559576 5.994636-13.33885 9.902135-19.678727l-17.575897-17.466048a15.724151 15.724151 0 0 1 0.109849-22.126799l39.828238-39.922394c6.230028-6.120178 16.00662-6.120178 22.236648 0l17.48174 17.230656c6.339877-3.452408 12.899453-6.779275 19.678728-9.556894 6.794967-2.66777 13.684091-5.225691 20.918456-7.124515v-24.57487c0-8.56825 7.014666-15.786922 15.582915-15.786922h56.509647c8.787948 0 15.802614 7.218672 15.802615 15.786922V305.773528a178.269811 178.269811 0 0 1 40.487334 16.681409l17.685746-17.230656a15.37891 15.37891 0 0 1 21.922793 0l40.047936 40.047936a15.677072 15.677072 0 0 1 0 22.001257l-17.230656 17.466048a188.313181 188.313181 0 0 1 9.556894 19.804269c2.777619 6.669425 5.241384 13.684091 7.124515 20.792914h24.574871c8.693792 0 15.802614 6.998973 15.802614 15.677072l-0.109849 1.333885zM512.054925 402.205569a62.77106 62.77106 0 1 0 0 125.542121 62.77106 62.77106 0 0 0 0-125.542121z" fill="currentColor" p-id="7683"></path><path d="M920.066817 794.524696h-360.933597v31.38553h188.313181c12.130507 0 31.38553 15.692765 31.38553 31.385531s-19.255023 31.38553-31.38553 31.38553h-470.782953c-12.114815 0-31.38553-15.692765-31.38553-31.38553s19.270716-31.38553 31.38553-31.385531h188.313181v-31.38553h-360.933596c-20.541829 0-47.078295-27.838965-47.078296-47.078295v-564.939543c0-19.725806 26.536466-47.078295 47.078296-47.078295h816.023784c20.573215 0 47.078295 27.35249 47.078295 47.078295v564.939543c0 19.23933-26.50508 47.078295-47.078295 47.078295z m-31.38553-580.632308h-753.252724v502.168483h753.252724v-502.168483zM324.965779 425.336705h24.57487c2.008674-7.108823 4.346896-14.123489 7.124516-20.918456 2.777619-6.559576 5.994636-13.33885 9.902135-19.678727l-17.575897-17.466048a15.724151 15.724151 0 0 1 0.109849-22.126799l39.828238-39.922394c6.230028-6.120178 16.00662-6.120178 22.236648 0l17.48174 17.230656c6.339877-3.452408 12.899453-6.779275 19.678728-9.556894 6.794967-2.66777 13.684091-5.225691 20.918456-7.124515v-24.57487c0-8.56825 7.014666-15.786922 15.582915-15.786922h56.509647c8.787948 0 15.802614 7.218672 15.802615 15.786922V305.773528a178.269811 178.269811 0 0 1 40.487334 16.681409l17.685746-17.230656a15.37891 15.37891 0 0 1 21.922793 0l40.047936 40.047936a15.677072 15.677072 0 0 1 0 22.001257l-17.230656 17.466048a188.313181 188.313181 0 0 1 9.556894 19.804269c2.777619 6.669425 5.241384 13.684091 7.124515 20.792914h24.574871c8.693792 0 15.802614 6.998973 15.802614 15.677072l-0.109849 1.333885v55.285612a15.645687 15.645687 0 0 1-15.692765 15.567223h-24.574871c-1.883132 7.234365-4.346896 14.233338-7.124515 21.028305l-0.329548 0.533554c-2.793312 6.575269-5.90048 13.024995-9.227346 19.145173l17.230656 17.450355a15.598608 15.598608 0 0 1 0 22.016949l-40.047936 40.047937a15.582916 15.582916 0 0 1-21.922793 0l-17.685746-17.575897c-6.120178 3.797649-12.899453 7.014666-19.678728 9.902135-6.685118 2.66777-13.574242 5.115841-20.808606 7.218672v24.480713a15.849693 15.849693 0 0 1-15.802615 15.786922h-56.509647c-8.56825 0-15.582916-7.234365-15.582915-15.786922h-0.10985v-24.480713c-7.124515-2.102831-14.013639-4.550902-20.808606-7.218672a151.811809 151.811809 0 0 1-19.678728-9.902135l-17.575897 17.575897a15.645687 15.645687 0 0 1-22.142491-0.10985l-39.938087-40.047936a15.567223 15.567223 0 0 1 0-21.9071l17.575897-17.575897a132.949106 132.949106 0 0 1-9.902135-19.553185 198.356551 198.356551 0 0 1-7.124516-21.028305h-24.57487c-8.678099 0-15.692765-7.014666-15.692765-15.567223v-56.619497a15.66138 15.66138 0 0 1 15.692765-15.677072z m15.677073 56.493954h21.357853c7.454063 0 14.013639 5.33554 15.473066 12.899453 1.663433 9.227346 4.660751 18.580234 8.238702 27.368182a132.91772 132.91772 0 0 0 13.558549 25.014268v0.235391a15.410295 15.410295 0 0 1-1.883132 19.678728l-15.253367 15.457373 17.921137 17.575897 14.798278-14.688428c5.33554-5.445389 13.793941-6.669425 20.353516-2.228372a131.081667 131.081667 0 0 0 25.249659 13.684091c8.238702 3.436716 17.042343 6.120178 26.034297 7.89346a15.441681 15.441681 0 0 1 14.029332 15.582916v21.45201h25.233967v-21.45201c0-7.454063 5.351233-13.809633 12.915145-15.473066a115.655679 115.655679 0 0 0 27.24264-8.00331 135.58549 135.58549 0 0 0 25.155503-13.574242l0.219699-0.109849a15.441681 15.441681 0 0 1 19.69442 2.008673l15.237675 14.908127 18.030987-17.575897-15.017976-15.017976a15.677072 15.677072 0 0 1-2.228373-20.118125 125.699048 125.699048 0 0 0 13.4487-24.700412l0.235391-0.549247a122.278026 122.278026 0 0 0 7.893461-26.363845 15.849693 15.849693 0 0 1 15.567223-13.90379h21.593245V456.816392h-21.593245c-7.328521 0-13.90379-5.351233-15.331832-13.009303a120.849984 120.849984 0 0 0-8.128852-27.258333 136.448592 136.448592 0 0 0-13.574242-25.02996l-0.109849-0.219699a15.520145 15.520145 0 0 1 1.883132-19.678727l15.363217-15.457374-18.030987-17.905445-14.908127 14.892434a15.598608 15.598608 0 0 1-20.023968 2.448072 146.994131 146.994131 0 0 0-25.375202-13.793941 119.076701 119.076701 0 0 0-26.018604-7.783611 16.038006 16.038006 0 0 1-14.139181-15.786922v-21.34216h-25.233967v21.34216c0 7.563913-5.351233 14.013639-12.915145 15.567223a119.924111 119.924111 0 0 0-27.148484 8.00331 131.55245 131.55245 0 0 0-24.920111 13.574242h-0.329548a15.692765 15.692765 0 0 1-19.914119-1.883132l-15.237675-15.237675-17.921137 17.905445 14.798277 15.017977a15.425988 15.425988 0 0 1 2.338222 20.118124 127.425252 127.425252 0 0 0-13.558549 25.249659 133.435582 133.435582 0 0 0-8.019003 26.034298c-0.894488 7.783611-7.563913 14.233338-15.692765 14.233338h-21.357853v25.014267z m172.541952-86.074816c20.25936 0 38.604202 8.223009 51.958745 21.577552a73.143978 73.143978 0 0 1 21.577552 51.927359 73.253827 73.253827 0 0 1-21.577552 52.052902 73.583375 73.583375 0 0 1-51.958745 21.467703 73.410755 73.410755 0 0 1-52.052902-21.467703 73.253827 73.253827 0 0 1-21.577552-52.052902c0-20.243667 8.223009-38.588509 21.577552-51.927359a73.049821 73.049821 0 0 1 52.052902-21.577552z m-38.823901 112.20327a54.704979 54.704979 0 0 0 38.823901 16.022313c15.033669 0 28.702067-5.994636 38.604202-16.022313 10.137526-9.776593 16.022313-23.55484 16.022313-38.698359 0-15.127826-5.884787-28.686375-16.022313-38.698358a54.469588 54.469588 0 0 0-38.604202-16.022314c-15.127826 0-28.921766 6.120178-38.823901 15.912464a55.630852 55.630852 0 0 0-16.00662 38.808208 54.924678 54.924678 0 0 0 16.00662 38.698359z m348.897246 115.43598c20.526137 0 37.144775 15.284753 37.144775 34.037607 0 19.772884-16.618638 35.07333-37.144775 35.07333-20.275052 0-37.144775-15.300446-37.144775-35.07333 0-18.752854 16.869722-34.037607 37.144775-34.037607z" fill="currentColor" p-id="7684"></path></svg>